<svg width="35px" height="35px" viewBox="0 0 28 28" xmlns="http://www.w3.org/2000/svg">
    <g fill="none" fill-rule="evenodd">
        <path d="M23.616 5.838 13.518 1.1 4 5.675v20.554h19.616v-3.427h1v3.427H27.5c.276 0 .5.22.5.49s-.224.49-.5.49H.5c-.276 0-.5-.22-.5-.49s.224-.49.5-.49H3V5.37c0-.187.108-.357.28-.44L13.295.117a.51.51 0 0 1 .437-.002l10.6 4.974a.489.489 0 0 1 .284.441v10.418h-1V5.838Z" fill="currentColor" fill-rule="nonzero"></path>
        <path d="M24.912 6.354c.25.116.548.01.665-.234a.485.485 0 0 0-.239-.651L13.728.113a.51.51 0 0 0-.427.001L1.854 5.47a.485.485 0 0 0-.237.652.505.505 0 0 0 .666.232l11.234-5.256 11.395 5.256ZM10 25.74h7v.543c0 .27.224.49.5.49s.5-.22.5-.49V25.25c0-.27-.224-.49-.5-.49h-8c-.276 0-.5.22-.5.49v1.033c0 .27.224.49.5.49s.5-.22.5-.49v-.543Z" fill="currentColor" fill-rule="nonzero"></path>
        <path d="M16 24.27v.544c0 .27.224.49.5.49s.5-.22.5-.49v-1.033c0-.27-.224-.49-.5-.49h-6c-.276 0-.5.22-.5.49v1.033c0 .27.224.49.5.49s.5-.22.5-.49v-.543h5Z" fill="currentColor" fill-rule="nonzero"></path>
        <path d="M12 18.885h3v4.407c0 .27.224.49.5.49s.5-.22.5-.49v-4.896c0-.27-.224-.49-.5-.49h-4c-.276 0-.5.22-.5.49v4.896c0 .27.224.49.5.49s.5-.22.5-.49v-4.407ZM12 9.583v2.938h3V9.583h-3Zm-.5-.979h4c.276 0 .5.22.5.49v3.916c0 .27-.224.49-.5.49h-4c-.276 0-.5-.22-.5-.49V9.094c0-.27.224-.49.5-.49Z" fill="currentColor" fill-rule="nonzero"></path>
        <path d="M15 11.052h-3c-.276 0-.5.22-.5.49s.224.49.5.49h3c.276 0 .5-.22.5-.49s-.224-.49-.5-.49ZM24 23.292c-2.21 0-4-1.754-4-3.917s1.79-3.917 4-3.917 4 1.754 4 3.917-1.79 3.917-4 3.917Zm0-.98c1.657 0 3-1.315 3-2.937 0-1.622-1.343-2.938-3-2.938s-3 1.316-3 2.938 1.343 2.937 3 2.937Z" fill="currentColor" fill-rule="nonzero"></path>
        <path d="M24 23.292v2.937"></path>
    </g>
</svg>