<svg width="35px" height="35px" viewBox="0 0 36 29" xmlns="http://www.w3.org/2000/svg">
    <g transform="translate(.5 1)" fill="none" fill-rule="evenodd">
        <g fill-rule="nonzero">
            <path d="M2.5 5.722 11.064.41 19.5 5.724V27.5h-17V5.722Z" stroke="currentColor" stroke-linecap="round" stroke-linejoin="round"></path>
            <path d="M7.5 27.5h7V26h-7v1.5ZM8.5 26h5v-1.5h-5V26ZM9.5 24.5h3v-5h-3v5Z" stroke="currentColor"></path>
            <g transform="translate(9 9)">
                <rect stroke="currentColor" x="0.5" y="0.5" width="3" height="3" rx="0.5"></rect>
                <path fill="currentColor" d="M0 2h4v1H0z"></path>
            </g>
            <path stroke="currentColor" stroke-linecap="round" stroke-linejoin="round" d="M1.62 6.277 11.06.4l9.406 5.916"></path>
        </g>
        <g fill-rule="nonzero">
            <path d="m19.5 12.172 6.549-3.75 6.451 3.752V27.5h-13V12.172Z" stroke="currentColor" stroke-linecap="round" stroke-linejoin="round"></path>
            <path d="M24.5 27.5h3v-5h-3v5Z" stroke="currentColor"></path>
            <g transform="translate(24 14)">
                <rect stroke="currentColor" x="0.5" y="0.5" width="3" height="3" rx="0.5"></rect>
                <path fill="currentColor" d="M0 2h4v1H0z"></path>
            </g>
        </g>
        <path stroke="currentColor" stroke-linecap="round" stroke-linejoin="round" d="m19.54 12.161 6.5-3.755 7.36 4.28"></path>
        <rect fill="currentColor" fill-rule="nonzero" y="27" width="35" height="1" rx="0.5"></rect>
    </g>
</svg>